<?xml version="1.0" encoding="UTF-8"?>
<svg xmlns="http://www.w3.org/2000/svg" xmlns:xlink="http://www.w3.org/1999/xlink" width="20pt" height="20pt" viewBox="0 0 20 20" version="1.1">
<g id="surface1">
<path style=" stroke:none;fill-rule:nonzero;fill:rgb(95.686275%,26.27451%,21.176471%);fill-opacity:1;" d="M 10 0 C 4.484375 0 0 4.484375 0 10 C 0 15.515625 4.484375 20 10 20 C 15.515625 20 20 15.515625 20 10 C 20 4.484375 15.515625 0 10 0 Z M 10 0 "/>
<path style=" stroke:none;fill-rule:nonzero;fill:rgb(98.039216%,98.039216%,98.039216%);fill-opacity:1;" d="M 13.683594 12.503906 C 14.007812 12.828125 14.007812 13.355469 13.683594 13.683594 C 13.519531 13.84375 13.308594 13.925781 13.09375 13.925781 C 12.878906 13.925781 12.667969 13.84375 12.503906 13.683594 L 10 11.179688 L 7.496094 13.683594 C 7.332031 13.84375 7.121094 13.925781 6.90625 13.925781 C 6.691406 13.925781 6.480469 13.84375 6.316406 13.683594 C 5.992188 13.355469 5.992188 12.828125 6.316406 12.503906 L 8.820312 10 L 6.316406 7.496094 C 5.992188 7.171875 5.992188 6.644531 6.316406 6.316406 C 6.644531 5.992188 7.171875 5.992188 7.496094 6.316406 L 10 8.820312 L 12.503906 6.316406 C 12.828125 5.992188 13.355469 5.992188 13.683594 6.316406 C 14.007812 6.644531 14.007812 7.171875 13.683594 7.496094 L 11.179688 10 Z M 13.683594 12.503906 "/>
</g>
</svg>
